<svg xmlns="http://www.w3.org/2000/svg" viewBox="0 0 98.06 113.56"><defs><style>.cls-1{fill:#fff;}</style></defs><g id="Layer_2" data-name="Layer 2"><g id="Layer_1-2" data-name="Layer 1"><polyline class="cls-1" points="38.65 49.42 43.06 57.68 43.06 57.69"/><line class="cls-1" x1="34.22" y1="63.98" x2="26.47" y2="49.5"/><line class="cls-1" x1="0.38" y1="0.7"/><line class="cls-1" x1="77.21" y1="49.18" x2="76.55" y2="49.19"/><line class="cls-1" x1="38.65" y1="49.42" x2="26.47" y2="49.5"/><path class="cls-1" d="M86.11,78.91h0l5.43,9,5.89,9.73-.2,15.48-3,0L79.58,88.93,73.39,78.7l1.15-1.77.25-.39,0-.07,5.07-7.78,12.77-19.6h0l5.37,0L97.91,60.8l-5.63,8.64Z"/><path class="cls-1" d="M40.8,64.84c-1.6,1-3.88.61-6.58-.86L26.47,49.5l12.18-.08,4.41,8.26h0C43.27,61.24,42.55,63.78,40.8,64.84Z"/><path class="cls-1" d="M41.88,102.38l-7.23,11.11-7,0-5.25,0,7.32-11.23,3.39-5.19c2.64-3.1,5.56-4.65,7.5-3.65S43.06,98.12,41.88,102.38Z"/><path class="cls-1" d="M33.12,97.14l-3.39,5.19c.05-.11.11-.21.16-.32A24.52,24.52,0,0,1,33.12,97.14Z"/><polyline class="cls-1" points="27.66 113.53 34.65 113.49 41.88 102.38"/><path class="cls-1" d="M76.55,49.19,72.17,55.9l-6.53,10-10,15.31L53.8,84.09c-1.93,1.11-3.63,1.42-5,.8-1.91-.87-2.88-3.46-3-7.24L50.17,71l9.6-14.74,4.54-7,3.82,0Z"/><line class="cls-1" x1="50.17" y1="70.96" x2="45.81" y2="77.65"/><line class="cls-1" x1="64.31" y1="49.26" x2="59.77" y2="56.22"/><line class="cls-1" x1="68.13" y1="49.24" x2="64.31" y2="49.26"/><line class="cls-1" x1="55.66" y1="81.23" x2="53.8" y2="84.09"/><line class="cls-1" x1="76.55" y1="49.19" x2="72.17" y2="55.9"/></g></g></svg>